# xmcd CD database file
#
# Track frame offsets:
#	150
#	22343
#	42895
#	62820
#	85215
#	105278
#	126308
#	146333
#	166690
#	192443
#
# Disc length: 2804 seconds
#
# Revision: 0
# Processed by: cddbd v1.5.1PL0 Copyright (c) Steve Scherf et al.
# Submitted via: CDex 1.51
#
DISCID=830af20a
DTITLE=PaniCrew - THE BEST
DYEAR=2004
DGENRE=JPop
TTITLE0=BASKET BALL
TTITLE1=Wild Flower〜花のしらべ〜
TTITLE2=LOVEfilia
TTITLE3=聖域〜Sanctuary〜
TTITLE4=Paradise Bonnie
TTITLE5=レッツ ゴー・クレイジー！
TTITLE6=FANTASTIC VOYAGE
TTITLE7=DisCoNection
TTITLE8=夜のトビラ
TTITLE9=素敵なカンケイ [Live]
EXTD=YEAR: 2004
EXTT0=
EXTT1=
EXTT2=
EXTT3=
EXTT4=
EXTT5=
EXTT6=
EXTT7=
EXTT8=
EXTT9=
PLAYORDER=
